STARTFONT 2.1
FONT serifi10
SIZE 12 75 75
FONTBOUNDINGBOX 8 13 0 -3

STARTPROPERTIES 10
COPYRIGHT "Share and enjoy."
POINT_SIZE 120
WEIGHT 10
RESOLUTION_X 75
RESOLUTION_Y 75
X_HEIGHT 10
QUAD_WIDTH 8
DEFAULT_CHAR 0
FONT_DESCENT 3
FONT_ASCENT 10
ENDPROPERTIES

CHARS 125

STARTCHAR C002
ENCODING 2
SWIDTH 666 0
DWIDTH 8 0
BBX 8 13 0 -3
BITMAP
00
04
04
00
08
08
10
20
24
18
00
00
00
ENDCHAR

STARTCHAR C003
ENCODING 3
SWIDTH 666 0
DWIDTH 8 0
BBX 8 13 0 -3
BITMAP
00
00
00
00
0C
12
20
20
24
18
08
18
00
ENDCHAR

STARTCHAR C004
ENCODING 4
SWIDTH 666 0
DWIDTH 8 0
BBX 8 13 0 -3
BITMAP
00
09
09
00
00
00
00
00
00
00
00
00
00
ENDCHAR

STARTCHAR C005
ENCODING 5
SWIDTH 666 0
DWIDTH 8 0
BBX 8 13 0 -3
BITMAP
00
02
01
00
00
00
00
00
00
00
00
00
00
ENDCHAR

STARTCHAR C006
ENCODING 6
SWIDTH 666 0
DWIDTH 8 0
BBX 8 13 0 -3
BITMAP
00
00
1F
12
7F
12
24
24
24
48
D8
90
00
ENDCHAR

STARTCHAR C007
ENCODING 7
SWIDTH 666 0
DWIDTH 8 0
BBX 8 13 0 -3
BITMAP
00
00
04
08
0C
00
00
00
00
00
00
00
00
ENDCHAR

STARTCHAR C010
ENCODING 8
SWIDTH 666 0
DWIDTH 8 0
BBX 8 13 0 -3
BITMAP
00
00
02
02
00
04
04
08
08
08
00
00
00
ENDCHAR

STARTCHAR C011
ENCODING 9
SWIDTH 666 0
DWIDTH 8 0
BBX 8 13 0 -3
BITMAP
00
00
00
00
00
00
00
00
00
00
00
00
00
ENDCHAR

STARTCHAR C012
ENCODING 10
SWIDTH 666 0
DWIDTH 8 0
BBX 8 13 0 -3
BITMAP
00
00
00
00
00
00
00
00
00
00
00
00
00
ENDCHAR

STARTCHAR C013
ENCODING 11
SWIDTH 666 0
DWIDTH 8 0
BBX 8 13 0 -3
BITMAP
00
02
04
00
00
00
00
00
00
00
00
00
00
ENDCHAR

STARTCHAR C014
ENCODING 12
SWIDTH 666 0
DWIDTH 8 0
BBX 8 13 0 -3
BITMAP
00
00
00
00
00
00
00
00
00
00
00
00
00
ENDCHAR

STARTCHAR C015
ENCODING 13
SWIDTH 666 0
DWIDTH 8 0
BBX 8 13 0 -3
BITMAP
00
00
00
00
00
00
00
00
00
00
00
00
00
ENDCHAR

STARTCHAR C016
ENCODING 14
SWIDTH 666 0
DWIDTH 8 0
BBX 8 13 0 -3
BITMAP
00
0F
00
00
00
00
00
00
00
00
00
00
00
ENDCHAR

STARTCHAR C017
ENCODING 15
SWIDTH 666 0
DWIDTH 8 0
BBX 8 13 0 -3
BITMAP
00
00
00
00
00
00
00
00
00
00
00
00
00
ENDCHAR

STARTCHAR C020
ENCODING 16
SWIDTH 666 0
DWIDTH 8 0
BBX 8 13 0 -3
BITMAP
0D
16
00
00
00
00
00
00
00
00
00
00
00
ENDCHAR

STARTCHAR C021
ENCODING 17
SWIDTH 666 0
DWIDTH 8 0
BBX 8 13 0 -3
BITMAP
00
00
1B
24
7F
25
29
2A
2A
4B
E8
90
00
ENDCHAR

STARTCHAR C022
ENCODING 18
SWIDTH 666 0
DWIDTH 8 0
BBX 8 13 0 -3
BITMAP
00
00
1B
24
7F
25
29
2A
2A
4B
E8
90
00
ENDCHAR

STARTCHAR C023
ENCODING 19
SWIDTH 666 0
DWIDTH 8 0
BBX 8 13 0 -3
BITMAP
00
00
00
00
00
00
FF
00
00
00
00
00
00
ENDCHAR

STARTCHAR C024
ENCODING 20
SWIDTH 666 0
DWIDTH 8 0
BBX 8 13 0 -3
BITMAP
00
00
0E
10
7F
11
21
22
22
63
C0
80
00
ENDCHAR

STARTCHAR C025
ENCODING 21
SWIDTH 666 0
DWIDTH 8 0
BBX 8 13 0 -3
BITMAP
00
00
07
08
3F
09
11
12
12
23
A0
40
00
ENDCHAR

STARTCHAR C026
ENCODING 22
SWIDTH 666 0
DWIDTH 8 0
BBX 8 13 0 -3
BITMAP
00
00
00
00
00
00
7E
00
00
00
00
00
00
ENDCHAR

STARTCHAR C027
ENCODING 23
SWIDTH 666 0
DWIDTH 8 0
BBX 8 13 0 -3
BITMAP
00
11
0E
00
00
00
00
00
00
00
00
00
00
ENDCHAR

STARTCHAR C030
ENCODING 24
SWIDTH 666 0
DWIDTH 8 0
BBX 8 13 0 -3
BITMAP
00
00
00
00
00
00
3E
00
00
00
00
00
00
ENDCHAR

STARTCHAR C031
ENCODING 25
SWIDTH 666 0
DWIDTH 8 0
BBX 8 13 0 -3
BITMAP
00
00
00
00
00
00
00
00
00
00
00
00
00
ENDCHAR

STARTCHAR C032
ENCODING 26
SWIDTH 666 0
DWIDTH 8 0
BBX 8 13 0 -3
BITMAP
00
00
00
00
00
00
00
00
00
00
00
00
00
ENDCHAR

STARTCHAR C033
ENCODING 27
SWIDTH 666 0
DWIDTH 8 0
BBX 8 13 0 -3
BITMAP
00
00
00
00
00
00
00
00
00
00
00
00
00
ENDCHAR

STARTCHAR C034
ENCODING 28
SWIDTH 666 0
DWIDTH 8 0
BBX 8 13 0 -3
BITMAP
00
00
00
00
00
00
00
00
00
00
00
00
00
ENDCHAR

STARTCHAR C035
ENCODING 29
SWIDTH 666 0
DWIDTH 8 0
BBX 8 13 0 -3
BITMAP
00
00
00
00
00
00
00
00
00
00
00
02
02
ENDCHAR

STARTCHAR C036
ENCODING 30
SWIDTH 666 0
DWIDTH 8 0
BBX 8 13 0 -3
BITMAP
0D
16
00
00
00
00
00
00
00
00
00
00
00
ENDCHAR

STARTCHAR C037
ENCODING 31
SWIDTH 666 0
DWIDTH 8 0
BBX 8 13 0 -3
BITMAP
06
09
06
00
00
00
00
00
00
00
00
00
00
ENDCHAR

STARTCHAR C040
ENCODING 32
SWIDTH 666 0
DWIDTH 8 0
BBX 8 13 0 -3
BITMAP
00
00
00
00
00
00
00
00
00
00
00
00
00
ENDCHAR

STARTCHAR !
ENCODING 33
SWIDTH 666 0
DWIDTH 8 0
BBX 8 13 0 -3
BITMAP
00
00
02
02
02
04
04
00
08
08
00
00
00
ENDCHAR

STARTCHAR "
ENCODING 34
SWIDTH 666 0
DWIDTH 8 0
BBX 8 13 0 -3
BITMAP
00
00
09
09
12
12
00
00
00
00
00
00
00
ENDCHAR

STARTCHAR #
ENCODING 35
SWIDTH 666 0
DWIDTH 8 0
BBX 8 13 0 -3
BITMAP
00
00
04
09
1F
0A
14
7E
28
48
00
00
00
ENDCHAR

STARTCHAR $
ENCODING 36
SWIDTH 666 0
DWIDTH 8 0
BBX 8 13 0 -3
BITMAP
00
02
0F
15
14
0C
06
09
29
3E
10
00
00
ENDCHAR

STARTCHAR %
ENCODING 37
SWIDTH 666 0
DWIDTH 8 0
BBX 8 13 0 -3
BITMAP
00
00
1F
2A
52
34
0B
12
15
22
00
00
00
ENDCHAR

STARTCHAR &
ENCODING 38
SWIDTH 666 0
DWIDTH 8 0
BBX 8 13 0 -3
BITMAP
00
00
03
05
06
0C
15
25
22
1F
00
00
00
ENDCHAR

STARTCHAR '
ENCODING 39
SWIDTH 666 0
DWIDTH 8 0
BBX 8 13 0 -3
BITMAP
00
00
0C
04
08
00
00
00
00
00
00
00
00
ENDCHAR

STARTCHAR (
ENCODING 40
SWIDTH 666 0
DWIDTH 8 0
BBX 8 13 0 -3
BITMAP
00
00
01
02
04
08
08
10
10
10
10
08
00
ENDCHAR

STARTCHAR )
ENCODING 41
SWIDTH 666 0
DWIDTH 8 0
BBX 8 13 0 -3
BITMAP
00
00
02
01
01
01
01
02
02
04
08
10
00
ENDCHAR

STARTCHAR *
ENCODING 42
SWIDTH 666 0
DWIDTH 8 0
BBX 8 13 0 -3
BITMAP
00
04
15
0E
15
04
00
00
00
00
00
00
00
ENDCHAR

STARTCHAR +
ENCODING 43
SWIDTH 666 0
DWIDTH 8 0
BBX 8 13 0 -3
BITMAP
00
00
00
00
00
04
04
3F
08
08
00
00
00
ENDCHAR

STARTCHAR ,
ENCODING 44
SWIDTH 666 0
DWIDTH 8 0
BBX 8 13 0 -3
BITMAP
00
00
00
00
00
00
00
00
0C
04
08
10
00
ENDCHAR

STARTCHAR -
ENCODING 45
SWIDTH 666 0
DWIDTH 8 0
BBX 8 13 0 -3
BITMAP
00
00
00
00
00
00
1E
00
00
00
00
00
00
ENDCHAR

STARTCHAR .
ENCODING 46
SWIDTH 666 0
DWIDTH 8 0
BBX 8 13 0 -3
BITMAP
00
00
00
00
00
00
00
00
04
04
00
00
00
ENDCHAR

STARTCHAR /
ENCODING 47
SWIDTH 666 0
DWIDTH 8 0
BBX 8 13 0 -3
BITMAP
00
00
01
01
02
04
04
08
10
10
00
00
00
ENDCHAR

STARTCHAR 0
ENCODING 48
SWIDTH 666 0
DWIDTH 8 0
BBX 8 13 0 -3
BITMAP
00
00
0C
12
12
22
22
24
24
18
00
00
00
ENDCHAR

STARTCHAR 1
ENCODING 49
SWIDTH 666 0
DWIDTH 8 0
BBX 8 13 0 -3
BITMAP
00
00
02
0E
02
04
04
08
08
1C
00
00
00
ENDCHAR

STARTCHAR 2
ENCODING 50
SWIDTH 666 0
DWIDTH 8 0
BBX 8 13 0 -3
BITMAP
00
00
0C
12
02
02
04
08
12
3C
00
00
00
ENDCHAR

STARTCHAR 3
ENCODING 51
SWIDTH 666 0
DWIDTH 8 0
BBX 8 13 0 -3
BITMAP
00
00
0C
12
02
1C
04
04
24
18
00
00
00
ENDCHAR

STARTCHAR 4
ENCODING 52
SWIDTH 666 0
DWIDTH 8 0
BBX 8 13 0 -3
BITMAP
00
00
06
0A
12
14
24
3E
08
08
00
00
00
ENDCHAR

STARTCHAR 5
ENCODING 53
SWIDTH 666 0
DWIDTH 8 0
BBX 8 13 0 -3
BITMAP
00
00
0E
10
10
28
04
04
08
30
00
00
00
ENDCHAR

STARTCHAR 6
ENCODING 54
SWIDTH 666 0
DWIDTH 8 0
BBX 8 13 0 -3
BITMAP
00
00
06
08
10
18
24
24
24
18
00
00
00
ENDCHAR

STARTCHAR 7
ENCODING 55
SWIDTH 666 0
DWIDTH 8 0
BBX 8 13 0 -3
BITMAP
00
00
1E
24
08
08
10
10
20
20
00
00
00
ENDCHAR

STARTCHAR 8
ENCODING 56
SWIDTH 666 0
DWIDTH 8 0
BBX 8 13 0 -3
BITMAP
00
00
0C
12
12
0C
18
24
24
18
00
00
00
ENDCHAR

STARTCHAR 9
ENCODING 57
SWIDTH 666 0
DWIDTH 8 0
BBX 8 13 0 -3
BITMAP
00
00
0C
12
12
12
0C
04
08
30
00
00
00
ENDCHAR

STARTCHAR :
ENCODING 58
SWIDTH 666 0
DWIDTH 8 0
BBX 8 13 0 -3
BITMAP
00
00
00
00
04
04
00
00
08
08
00
00
00
ENDCHAR

STARTCHAR ;
ENCODING 59
SWIDTH 666 0
DWIDTH 8 0
BBX 8 13 0 -3
BITMAP
00
00
00
00
02
02
00
00
0C
04
08
10
00
ENDCHAR

STARTCHAR <
ENCODING 60
SWIDTH 666 0
DWIDTH 8 0
BBX 8 13 0 -3
BITMAP
00
00
01
02
04
08
10
08
04
02
00
00
00
ENDCHAR

STARTCHAR =
ENCODING 61
SWIDTH 666 0
DWIDTH 8 0
BBX 8 13 0 -3
BITMAP
00
00
00
00
00
00
0F
00
1E
00
00
00
00
ENDCHAR

STARTCHAR >
ENCODING 62
SWIDTH 666 0
DWIDTH 8 0
BBX 8 13 0 -3
BITMAP
00
00
08
04
02
01
02
04
08
10
00
00
00
ENDCHAR

STARTCHAR ?
ENCODING 63
SWIDTH 666 0
DWIDTH 8 0
BBX 8 13 0 -3
BITMAP
00
00
0C
12
02
04
08
00
10
10
00
00
00
ENDCHAR

STARTCHAR @
ENCODING 64
SWIDTH 666 0
DWIDTH 8 0
BBX 8 13 0 -3
BITMAP
00
0E
19
20
2E
4A
55
5E
4E
20
3E
00
00
ENDCHAR

STARTCHAR A
ENCODING 65
SWIDTH 666 0
DWIDTH 8 0
BBX 8 13 0 -3
BITMAP
00
00
06
06
0A
0A
12
1E
22
77
00
00
00
ENDCHAR

STARTCHAR B
ENCODING 66
SWIDTH 666 0
DWIDTH 8 0
BBX 8 13 0 -3
BITMAP
00
00
1E
09
09
1E
12
12
22
7C
00
00
00
ENDCHAR

STARTCHAR C
ENCODING 67
SWIDTH 666 0
DWIDTH 8 0
BBX 8 13 0 -3
BITMAP
00
00
0D
33
20
40
40
40
42
3C
00
00
00
ENDCHAR

STARTCHAR D
ENCODING 68
SWIDTH 666 0
DWIDTH 8 0
BBX 8 13 0 -3
BITMAP
00
00
1F
08
08
10
10
11
23
7C
00
00
00
ENDCHAR

STARTCHAR E
ENCODING 69
SWIDTH 666 0
DWIDTH 8 0
BBX 8 13 0 -3
BITMAP
00
00
1F
08
0A
1C
14
10
21
7E
00
00
00
ENDCHAR

STARTCHAR F
ENCODING 70
SWIDTH 666 0
DWIDTH 8 0
BBX 8 13 0 -3
BITMAP
00
00
1F
08
0A
1C
14
10
20
70
00
00
00
ENDCHAR

STARTCHAR G
ENCODING 71
SWIDTH 666 0
DWIDTH 8 0
BBX 8 13 0 -3
BITMAP
00
00
0D
33
20
40
47
42
44
38
00
00
00
ENDCHAR

STARTCHAR H
ENCODING 72
SWIDTH 666 0
DWIDTH 8 0
BBX 8 13 0 -3
BITMAP
00
00
3B
11
11
3E
22
22
44
EE
00
00
00
ENDCHAR

STARTCHAR I
ENCODING 73
SWIDTH 666 0
DWIDTH 8 0
BBX 8 13 0 -3
BITMAP
00
00
0E
04
04
08
08
08
10
38
00
00
00
ENDCHAR

STARTCHAR J
ENCODING 74
SWIDTH 666 0
DWIDTH 8 0
BBX 8 13 0 -3
BITMAP
00
00
07
02
02
04
04
04
28
38
00
00
00
ENDCHAR

STARTCHAR K
ENCODING 75
SWIDTH 666 0
DWIDTH 8 0
BBX 8 13 0 -3
BITMAP
00
00
1D
09
0A
1C
14
14
22
77
00
00
00
ENDCHAR

STARTCHAR L
ENCODING 76
SWIDTH 666 0
DWIDTH 8 0
BBX 8 13 0 -3
BITMAP
00
00
1C
08
08
10
10
11
22
7E
00
00
00
ENDCHAR

STARTCHAR M
ENCODING 77
SWIDTH 666 0
DWIDTH 8 0
BBX 8 13 0 -3
BITMAP
00
00
71
33
35
55
55
5A
5A
D7
00
00
00
ENDCHAR

STARTCHAR N
ENCODING 78
SWIDTH 666 0
DWIDTH 8 0
BBX 8 13 0 -3
BITMAP
00
00
33
11
19
2A
2A
2A
44
E4
00
00
00
ENDCHAR

STARTCHAR O
ENCODING 79
SWIDTH 666 0
DWIDTH 8 0
BBX 8 13 0 -3
BITMAP
00
00
0E
31
20
40
40
41
23
1C
00
00
00
ENDCHAR

STARTCHAR P
ENCODING 80
SWIDTH 666 0
DWIDTH 8 0
BBX 8 13 0 -3
BITMAP
00
00
1E
09
09
11
1E
10
20
70
00
00
00
ENDCHAR

STARTCHAR Q
ENCODING 81
SWIDTH 666 0
DWIDTH 8 0
BBX 8 13 0 -3
BITMAP
00
00
0E
31
20
40
40
41
23
1C
11
2E
00
ENDCHAR

STARTCHAR R
ENCODING 82
SWIDTH 666 0
DWIDTH 8 0
BBX 8 13 0 -3
BITMAP
00
00
1E
09
09
1E
14
14
22
73
00
00
00
ENDCHAR

STARTCHAR S
ENCODING 83
SWIDTH 666 0
DWIDTH 8 0
BBX 8 13 0 -3
BITMAP
00
00
0D
13
10
08
04
02
32
2C
00
00
00
ENDCHAR

STARTCHAR T
ENCODING 84
SWIDTH 666 0
DWIDTH 8 0
BBX 8 13 0 -3
BITMAP
00
00
7F
49
08
10
10
10
20
70
00
00
00
ENDCHAR

STARTCHAR U
ENCODING 85
SWIDTH 666 0
DWIDTH 8 0
BBX 8 13 0 -3
BITMAP
00
00
73
21
21
42
42
42
44
38
00
00
00
ENDCHAR

STARTCHAR V
ENCODING 86
SWIDTH 666 0
DWIDTH 8 0
BBX 8 13 0 -3
BITMAP
00
00
77
22
24
24
28
28
30
30
00
00
00
ENDCHAR

STARTCHAR W
ENCODING 87
SWIDTH 666 0
DWIDTH 8 0
BBX 8 13 0 -3
BITMAP
00
00
FF
49
5A
5A
5A
6C
6C
48
00
00
00
ENDCHAR

STARTCHAR X
ENCODING 88
SWIDTH 666 0
DWIDTH 8 0
BBX 8 13 0 -3
BITMAP
00
00
3B
12
14
08
08
14
24
6E
00
00
00
ENDCHAR

STARTCHAR Y
ENCODING 89
SWIDTH 666 0
DWIDTH 8 0
BBX 8 13 0 -3
BITMAP
00
00
73
22
14
18
10
10
20
70
00
00
00
ENDCHAR

STARTCHAR Z
ENCODING 90
SWIDTH 666 0
DWIDTH 8 0
BBX 8 13 0 -3
BITMAP
00
00
3E
42
04
08
10
20
42
7C
00
00
00
ENDCHAR

STARTCHAR [
ENCODING 91
SWIDTH 666 0
DWIDTH 8 0
BBX 8 13 0 -3
BITMAP
00
00
07
04
08
08
08
10
10
10
20
38
00
ENDCHAR

STARTCHAR \
ENCODING 92
SWIDTH 666 0
DWIDTH 8 0
BBX 8 13 0 -3
BITMAP
00
00
08
08
04
04
04
02
02
02
00
00
00
ENDCHAR

STARTCHAR ]
ENCODING 93
SWIDTH 666 0
DWIDTH 8 0
BBX 8 13 0 -3
BITMAP
00
00
07
01
02
02
02
04
04
04
08
38
00
ENDCHAR

STARTCHAR ^
ENCODING 94
SWIDTH 666 0
DWIDTH 8 0
BBX 8 13 0 -3
BITMAP
00
00
00
04
0E
15
04
08
08
08
00
00
00
ENDCHAR

STARTCHAR _
ENCODING 95
SWIDTH 666 0
DWIDTH 8 0
BBX 8 13 0 -3
BITMAP
00
00
00
00
04
08
3F
10
08
00
00
00
00
ENDCHAR

STARTCHAR `
ENCODING 96
SWIDTH 666 0
DWIDTH 8 0
BBX 8 13 0 -3
BITMAP
00
00
04
08
0C
00
00
00
00
00
00
00
00
ENDCHAR

STARTCHAR a
ENCODING 97
SWIDTH 666 0
DWIDTH 8 0
BBX 8 13 0 -3
BITMAP
00
00
00
00
0D
12
22
24
24
1A
00
00
00
ENDCHAR

STARTCHAR b
ENCODING 98
SWIDTH 666 0
DWIDTH 8 0
BBX 8 13 0 -3
BITMAP
00
00
18
08
0C
12
12
22
24
18
00
00
00
ENDCHAR

STARTCHAR c
ENCODING 99
SWIDTH 666 0
DWIDTH 8 0
BBX 8 13 0 -3
BITMAP
00
00
00
00
0C
12
20
20
24
18
00
00
00
ENDCHAR

STARTCHAR d
ENCODING 100
SWIDTH 666 0
DWIDTH 8 0
BBX 8 13 0 -3
BITMAP
00
00
03
01
0E
12
24
24
24
1A
00
00
00
ENDCHAR

STARTCHAR e
ENCODING 101
SWIDTH 666 0
DWIDTH 8 0
BBX 8 13 0 -3
BITMAP
00
00
00
00
0C
12
24
38
22
1C
00
00
00
ENDCHAR

STARTCHAR f
ENCODING 102
SWIDTH 666 0
DWIDTH 8 0
BBX 8 13 0 -3
BITMAP
00
00
07
08
3E
08
10
10
10
20
A0
40
00
ENDCHAR

STARTCHAR g
ENCODING 103
SWIDTH 666 0
DWIDTH 8 0
BBX 8 13 0 -3
BITMAP
00
00
00
00
0D
12
12
0C
10
2C
42
3C
00
ENDCHAR

STARTCHAR h
ENCODING 104
SWIDTH 666 0
DWIDTH 8 0
BBX 8 13 0 -3
BITMAP
00
00
18
08
0C
12
12
12
24
26
00
00
00
ENDCHAR

STARTCHAR i
ENCODING 105
SWIDTH 666 0
DWIDTH 8 0
BBX 8 13 0 -3
BITMAP
00
02
02
00
0C
04
04
08
08
0C
00
00
00
ENDCHAR

STARTCHAR j
ENCODING 106
SWIDTH 666 0
DWIDTH 8 0
BBX 8 13 0 -3
BITMAP
00
02
02
00
0C
04
04
08
08
08
28
30
00
ENDCHAR

STARTCHAR k
ENCODING 107
SWIDTH 666 0
DWIDTH 8 0
BBX 8 13 0 -3
BITMAP
00
00
18
08
13
14
18
28
24
26
00
00
00
ENDCHAR

STARTCHAR l
ENCODING 108
SWIDTH 666 0
DWIDTH 8 0
BBX 8 13 0 -3
BITMAP
00
00
06
02
04
04
04
08
08
0C
00
00
00
ENDCHAR

STARTCHAR m
ENCODING 109
SWIDTH 666 0
DWIDTH 8 0
BBX 8 13 0 -3
BITMAP
00
00
00
00
69
36
24
49
49
49
00
00
00
ENDCHAR

STARTCHAR n
ENCODING 110
SWIDTH 666 0
DWIDTH 8 0
BBX 8 13 0 -3
BITMAP
00
00
00
00
3C
12
12
24
24
26
00
00
00
ENDCHAR

STARTCHAR o
ENCODING 111
SWIDTH 666 0
DWIDTH 8 0
BBX 8 13 0 -3
BITMAP
00
00
00
00
0C
12
22
22
24
18
00
00
00
ENDCHAR

STARTCHAR p
ENCODING 112
SWIDTH 666 0
DWIDTH 8 0
BBX 8 13 0 -3
BITMAP
00
00
00
00
1E
09
09
11
12
1C
20
70
00
ENDCHAR

STARTCHAR q
ENCODING 113
SWIDTH 666 0
DWIDTH 8 0
BBX 8 13 0 -3
BITMAP
00
00
00
00
0E
12
22
24
24
1C
08
1C
00
ENDCHAR

STARTCHAR r
ENCODING 114
SWIDTH 666 0
DWIDTH 8 0
BBX 8 13 0 -3
BITMAP
00
00
00
00
1E
0A
08
10
10
38
00
00
00
ENDCHAR

STARTCHAR s
ENCODING 115
SWIDTH 666 0
DWIDTH 8 0
BBX 8 13 0 -3
BITMAP
00
00
00
00
0E
12
08
04
24
38
00
00
00
ENDCHAR

STARTCHAR t
ENCODING 116
SWIDTH 666 0
DWIDTH 8 0
BBX 8 13 0 -3
BITMAP
00
00
04
04
1E
08
08
10
14
18
00
00
00
ENDCHAR

STARTCHAR u
ENCODING 117
SWIDTH 666 0
DWIDTH 8 0
BBX 8 13 0 -3
BITMAP
00
00
00
00
36
12
12
24
24
1E
00
00
00
ENDCHAR

STARTCHAR v
ENCODING 118
SWIDTH 666 0
DWIDTH 8 0
BBX 8 13 0 -3
BITMAP
00
00
00
00
36
12
12
14
14
18
00
00
00
ENDCHAR

STARTCHAR w
ENCODING 119
SWIDTH 666 0
DWIDTH 8 0
BBX 8 13 0 -3
BITMAP
00
00
00
00
CD
4C
55
55
66
44
00
00
00
ENDCHAR

STARTCHAR x
ENCODING 120
SWIDTH 666 0
DWIDTH 8 0
BBX 8 13 0 -3
BITMAP
00
00
00
00
33
14
0C
18
14
66
00
00
00
ENDCHAR

STARTCHAR y
ENCODING 121
SWIDTH 666 0
DWIDTH 8 0
BBX 8 13 0 -3
BITMAP
00
00
00
00
33
11
12
12
14
0C
08
50
20
ENDCHAR

STARTCHAR z
ENCODING 122
SWIDTH 666 0
DWIDTH 8 0
BBX 8 13 0 -3
BITMAP
00
00
00
00
0E
12
04
08
12
3C
00
00
00
ENDCHAR

STARTCHAR {
ENCODING 123
SWIDTH 666 0
DWIDTH 8 0
BBX 8 13 0 -3
BITMAP
00
00
03
04
04
08
30
08
08
10
10
0C
00
ENDCHAR

STARTCHAR |
ENCODING 124
SWIDTH 666 0
DWIDTH 8 0
BBX 8 13 0 -3
BITMAP
00
00
02
02
04
04
04
08
08
08
10
10
00
ENDCHAR

STARTCHAR }
ENCODING 125
SWIDTH 666 0
DWIDTH 8 0
BBX 8 13 0 -3
BITMAP
00
00
0C
02
04
04
03
04
08
08
08
30
00
ENDCHAR

STARTCHAR ~
ENCODING 126
SWIDTH 666 0
DWIDTH 8 0
BBX 8 13 0 -3
BITMAP
00
00
00
00
00
19
26
00
00
00
00
00
00
ENDCHAR
ENDFONT
